<svg width="96" height="96" viewBox="0 0 96 96" fill="none" xmlns="http://www.w3.org/2000/svg" aria-hidden="true">
  <rect width="96" height="96" rx="24" fill="#16191F"/>
  <path d="M21 66L39.6 24H48L66.6 66H58.2L54.3 56.7H33.3L29.4 66H21ZM35.94 50.1H51.84L43.92 31.2L35.94 50.1Z" fill="#FF9900"/>
  <path d="M69.6 29.4H78V36H73.5V66H69.6V29.4Z" fill="#FF9900"/>
  <path d="M22 74.5C30.2 79.1 40.1 81.7 49.6 81.7C60.8 81.7 72.1 78.2 80 71.5C81.2 70.5 80.1 69.1 78.9 69.8C70.4 74.8 59.8 77.8 49.3 77.8C40.4 77.8 30.6 75.8 22.8 71.4C21.6 70.7 20.8 73.7 22 74.5Z" fill="#FF9900"/>
  <path d="M78.1 67.6C76.6 65.7 68 66.7 64.1 67.2C62.9 67.4 62.7 66.3 63.8 65.5C70.8 60.6 82.4 62 83.7 63.6C85 65.3 83.4 76.9 76.8 82.4C75.8 83.2 74.8 82.8 75.2 81.7C76.6 78.2 79.6 70.8 78.1 67.6Z" fill="#FF9900"/>
</svg>
